<mxfile>
  <diagram>
    <mxGraphModel dx="4000" dy="4000" grid="1" gridSize="10" guides="1" tooltips="1" connect="1" arrows="1" fold="1" pageScale="1" pageWidth="4000" pageHeight="4000" math="0" shadow="0">
      <root>
        <mxCell id="0"/>
        <mxCell id="1" parent="0"/>
        <object label="Webex EQ CODEC, CS-CODEC-EQ-NR++" type="matrix" id="7156514544488127015">
          <mxCell id="9996557487977039885" value="Webex EQ CODEC, CS-CODEC-EQ-NR++" style="rounded=0;whiteSpace=wrap;html=1;" parent="1" connectable="" edge="" vertex="1" source="" target="">
            <mxGeometry x="3000" y="3000" width="200" height="1200" relative="" as="geometry"/>
          </mxCell>
        </object>
        <object label="Webex EQ CODEC, CS-CODEC-EQ-NR++" type="DTP" id="8776270624791770352">
          <mxCell id="1685773308350725703" value="Webex EQ CODEC, CS-CODEC-EQ-NR++" style="rounded=0;whiteSpace=wrap;html=1;" parent="1" connectable="" edge="" vertex="1" source="" target="">
            <mxGeometry x="2600" y="3000" width="160" height="80" relative="" as="geometry"/>
          </mxCell>
        </object>
        <object label="Webex EQ CODEC, CS-CODEC-EQ-NR++" type="DTP" id="3732347836076281359">
          <mxCell id="1840765851970362499" value="Webex EQ CODEC, CS-CODEC-EQ-NR++" style="rounded=0;whiteSpace=wrap;html=1;" parent="1" connectable="" edge="" vertex="1" source="" target="">
            <mxGeometry x="2600" y="3100" width="160" height="80" relative="" as="geometry"/>
          </mxCell>
        </object>
        <object label="DA HD 4K Plus, 60-1607-01" type="DTP" id="3387536594071483020">
          <mxCell id="4301404515094126153" value="DA HD 4K Plus, 60-1607-01" style="rounded=0;whiteSpace=wrap;html=1;" parent="1" connectable="" edge="" vertex="1" source="" target="">
            <mxGeometry x="2600" y="3200" width="160" height="80" relative="" as="geometry"/>
          </mxCell>
        </object>
        <object label="232-ATSC 4K HDTV, 5114-001" type="DTP" id="5355611320903926582">
          <mxCell id="3765461700669425359" value="232-ATSC 4K HDTV, 5114-001" style="rounded=0;whiteSpace=wrap;html=1;" parent="1" connectable="" edge="" vertex="1" source="" target="">
            <mxGeometry x="2600" y="3400" width="160" height="80" relative="" as="geometry"/>
          </mxCell>
        </object>
        <object label="DTP 4K 230 Tx, 60-1271-12" type="DTP" id="2946657634648614914">
          <mxCell id="9428187152727223582" value="DTP 4K 230 Tx, 60-1271-12" style="rounded=0;whiteSpace=wrap;html=1;" parent="1" connectable="" edge="" vertex="1" source="" target="">
            <mxGeometry x="2600" y="3600" width="160" height="80" relative="" as="geometry"/>
          </mxCell>
        </object>
        <object label="DTP 4K 230 Tx, 60-1271-12" type="DTP" id="9586902742044043845">
          <mxCell id="1069404492248831587" value="DTP 4K 230 Tx, 60-1271-12" style="rounded=0;whiteSpace=wrap;html=1;" parent="1" connectable="" edge="" vertex="1" source="" target="">
            <mxGeometry x="2600" y="3700" width="160" height="80" relative="" as="geometry"/>
          </mxCell>
        </object>
        <object label="DTP 4K 230 Tx, 60-1271-12" type="DTP" id="4856466662759635490">
          <mxCell id="1391071015973112028" value="DTP 4K 230 Tx, 60-1271-12" style="rounded=0;whiteSpace=wrap;html=1;" parent="1" connectable="" edge="" vertex="1" source="" target="">
            <mxGeometry x="2600" y="3800" width="160" height="80" relative="" as="geometry"/>
          </mxCell>
        </object>
        <object label="DTP 4K 230 Tx, 60-1271-12" type="DTP" id="3751560405224737993">
          <mxCell id="3577918770255418572" value="DTP 4K 230 Tx, 60-1271-12" style="rounded=0;whiteSpace=wrap;html=1;" parent="1" connectable="" edge="" vertex="1" source="" target="">
            <mxGeometry x="2600" y="3900" width="160" height="80" relative="" as="geometry"/>
          </mxCell>
        </object>
        <object label="TEST" type="DTP" id="654029323571647221">
          <mxCell id="5854428929291747383" value="TEST" style="rounded=0;whiteSpace=wrap;html=1;" parent="1" connectable="" edge="" vertex="1" source="" target="">
            <mxGeometry x="2200" y="3000" width="160" height="80" relative="" as="geometry"/>
          </mxCell>
        </object>
        <object label="OneLink Bridge" type="DTP" id="6196294950409113058">
          <mxCell id="1770887572029275116" value="OneLink Bridge" style="rounded=0;whiteSpace=wrap;html=1;" parent="1" connectable="" edge="" vertex="1" source="" target="">
            <mxGeometry x="2200" y="3200" width="160" height="80" relative="" as="geometry"/>
          </mxCell>
        </object>
        <object label="BYOD" type="DTP" id="2695588062070549521">
          <mxCell id="1016716142479529329" value="BYOD" style="rounded=0;whiteSpace=wrap;html=1;" parent="1" connectable="" edge="" vertex="1" source="" target="">
            <mxGeometry x="2200" y="3500" width="160" height="80" relative="" as="geometry"/>
          </mxCell>
        </object>
        <object label="BYOD" type="DTP" id="683824984935469399">
          <mxCell id="900857717859372457" value="BYOD" style="rounded=0;whiteSpace=wrap;html=1;" parent="1" connectable="" edge="" vertex="1" source="" target="">
            <mxGeometry x="2200" y="3600" width="160" height="80" relative="" as="geometry"/>
          </mxCell>
        </object>
        <object label="BYOD" type="DTP" id="1548245516382297027">
          <mxCell id="2162422864076494310" value="BYOD" style="rounded=0;whiteSpace=wrap;html=1;" parent="1" connectable="" edge="" vertex="1" source="" target="">
            <mxGeometry x="2200" y="3700" width="160" height="80" relative="" as="geometry"/>
          </mxCell>
        </object>
        <object label="BYOD" type="DTP" id="9996053051583776375">
          <mxCell id="2253311787479993465" value="BYOD" style="rounded=0;whiteSpace=wrap;html=1;" parent="1" connectable="" edge="" vertex="1" source="" target="">
            <mxGeometry x="2200" y="3800" width="160" height="80" relative="" as="geometry"/>
          </mxCell>
        </object>
        <object label="Vaddio Roboshot 12E, 999-99600-100" type="DTP" id="3383608246081786243">
          <mxCell id="5814356384777334265" value="Vaddio Roboshot 12E, 999-99600-100" style="rounded=0;whiteSpace=wrap;html=1;" parent="1" connectable="" edge="" vertex="1" source="" target="">
            <mxGeometry x="1800" y="3000" width="160" height="80" relative="" as="geometry"/>
          </mxCell>
        </object>
      </root>
    </mxGraphModel>
  </diagram>
</mxfile>
